<svg xmlns="http://www.w3.org/2000/svg" xmlns:xlink="http://www.w3.org/1999/xlink" version="1.1" x="0px" y="0px" viewBox="0 0 100 100" enable-background="new 0 0 100 100" xml:space="preserve"><path d="M67.675,26.006H22V14.948c0-1.421-1.152-2.573-2.574-2.573s-2.573,1.152-2.573,2.573V28.58c0,1.421,1.152,2.573,2.573,2.573  h48.249c1.422,0,2.573-1.152,2.573-2.573C70.248,27.158,69.097,26.006,67.675,26.006z"></path><path d="M38.911,61.813H19.426c-1.421,0-2.573,1.152-2.573,2.573V83.87c0,1.421,1.152,2.573,2.573,2.573h19.484  c1.421,0,2.573-1.152,2.573-2.573V64.387C41.484,62.966,40.332,61.813,38.911,61.813z M36.337,81.297H22V66.961h14.337V81.297z"></path><path d="M19.426,39.347h30.603c1.421,0,2.574-1.152,2.574-2.573S51.45,34.2,50.029,34.2H19.426c-1.421,0-2.573,1.152-2.573,2.573  S18.005,39.347,19.426,39.347z"></path><path d="M67.675,53.046H19.426c-1.421,0-2.573,1.152-2.573,2.573c0,1.422,1.152,2.574,2.573,2.574h48.249  c1.422,0,2.573-1.152,2.573-2.574C70.248,54.198,69.097,53.046,67.675,53.046z"></path><path d="M67.675,43.836H19.426c-1.421,0-2.573,1.152-2.573,2.573s1.152,2.573,2.573,2.573h48.249c1.422,0,2.573-1.152,2.573-2.573  S69.097,43.836,67.675,43.836z"></path><path d="M67.675,62.312H46.827c-1.421,0-2.574,1.151-2.574,2.573c0,1.421,1.152,2.573,2.574,2.573h20.848  c1.422,0,2.573-1.152,2.573-2.573C70.248,63.464,69.097,62.312,67.675,62.312z"></path><path d="M67.675,71.578H46.827c-1.421,0-2.574,1.152-2.574,2.573c0,1.422,1.152,2.573,2.574,2.573h20.848  c1.422,0,2.573-1.151,2.573-2.573C70.248,72.73,69.097,71.578,67.675,71.578z"></path><path d="M67.675,80.843H46.827c-1.421,0-2.574,1.151-2.574,2.573c0,1.421,1.152,2.573,2.574,2.573h20.848  c1.422,0,2.573-1.152,2.573-2.573C70.248,81.994,69.097,80.843,67.675,80.843z"></path><path d="M67.675,34.517h-9.306c-1.422,0-2.573,1.152-2.573,2.573s1.151,2.573,2.573,2.573h9.306c1.422,0,2.573-1.152,2.573-2.573  S69.097,34.517,67.675,34.517z"></path><path d="M89.577,43.205h-8.161V18.805c0-0.686-0.273-1.343-0.76-1.826L67.04,3.453c-0.482-0.479-1.134-0.748-1.813-0.748H8.258  c-1.421,0-2.573,1.152-2.573,2.573v88.384c0,1.421,1.152,2.573,2.573,2.573h75.953c4.377,0,7.939-3.562,7.939-7.939V45.778  C92.15,44.356,90.998,43.205,89.577,43.205z M73.5,17.125h-6.593v-6.55L73.5,17.125z M10.832,7.852h50.929v11.847  c0,1.421,1.151,2.573,2.573,2.573H76.27v66.025c0,0.983,0.188,1.922,0.517,2.793H10.832V7.852z M87.004,88.297  c0,1.54-1.253,2.793-2.793,2.793c-1.542,0-2.795-1.253-2.795-2.793V48.352h5.588V88.297z"></path></svg>