<?xml version="1.0" encoding="UTF-8"?>
<svg width="24px" height="20px" viewBox="0 0 24 20" version="1.1" xmlns="http://www.w3.org/2000/svg" xmlns:xlink="http://www.w3.org/1999/xlink">
    <!-- Generator: Sketch 41 (35326) - http://www.bohemiancoding.com/sketch -->
    <title>forward-arrow</title>
    <desc>Created with Sketch.</desc>
    <defs></defs>
    <g id="Welcome" stroke="none" stroke-width="1" fill="none" fill-rule="evenodd">
        <g id="Photo-Stream-Desktop" transform="translate(-894.000000, -49.000000)" fill="#000000">
            <g id="forward-arrow" transform="translate(894.000000, 49.000000)">
                <g id="Group">
                    <path d="M23.2966829,10.1469208 L23.2966829,10.1469208 L0.703609756,10.1457478 C0.444585366,10.1457478 0.23502439,9.93636364 0.23502439,9.67683284 C0.23502439,9.41730205 0.444585366,9.20733138 0.703609756,9.20733138 L0.703609756,9.20733138 L23.2966829,9.20821114 C23.5554146,9.20821114 23.7652683,9.41818182 23.7652683,9.67741935 C23.7652683,9.93665689 23.555122,10.1469208 23.2966829,10.1469208 L23.2966829,10.1469208 Z" id="Shape"></path>
                    <path d="M14.3531707,19.1076246 C14.2331707,19.1076246 14.112878,19.0612903 14.021561,18.9695015 C13.8389268,18.7868035 13.8389268,18.4894428 14.021561,18.3061584 L22.6340488,9.67741935 L14.021561,1.0483871 C13.8389268,0.865102639 13.8389268,0.568035191 14.021561,0.384750733 C14.2044878,0.201466276 14.5009756,0.201466276 14.6844878,0.384750733 L23.6277073,9.34604106 C23.7158049,9.43372434 23.7652683,9.55278592 23.7652683,9.67771261 C23.7652683,9.80234604 23.7158049,9.92140762 23.6277073,10.0090909 L14.6844878,18.9697947 C14.5925854,19.0612903 14.472878,19.1076246 14.3531707,19.1076246 L14.3531707,19.1076246 Z" id="Shape"></path>
                </g>
            </g>
        </g>
    </g>
</svg>