<svg xmlns="http://www.w3.org/2000/svg" viewBox="0 0 42 42" x="0px" y="0px"><title>48_px - Regular - 70 Basic Icons</title><g><path d="M16,19H3a3,3,0,0,1-3-3V3A3,3,0,0,1,3,0H16a3,3,0,0,1,3,3V16A3,3,0,0,1,16,19ZM4,15H15V4H4V15Z"></path><path d="M39,19H26a3,3,0,0,1-3-3V3a3,3,0,0,1,3-3H39a3,3,0,0,1,3,3V16A3,3,0,0,1,39,19ZM27,15H38V4H27V15Z"></path><path d="M16,42H3a3,3,0,0,1-3-3V26a3,3,0,0,1,3-3H16a3,3,0,0,1,3,3V39A3,3,0,0,1,16,42ZM4,38H15V27H4V38Z"></path><path d="M39,42H26a3,3,0,0,1-3-3V26a3,3,0,0,1,3-3H39a3,3,0,0,1,3,3V39A3,3,0,0,1,39,42ZM27,38H38V27H27V38Z"></path></g></svg>